<svg xmlns="http://www.w3.org/2000/svg" xmlns:xlink="http://www.w3.org/1999/xlink" version="1.1" x="0px" y="0px" viewBox="0 0 32 40" enable-background="new 0 0 32 32" xml:space="preserve"><path d="M27.648,16.766c0.523-0.613,0.853-1.396,0.853-2.265c0-1.93-1.569-3.5-3.5-3.5s-3.5,1.57-3.5,3.5  c0,0.868,0.329,1.652,0.854,2.265c-1.074,0.672-1.836,1.724-2.162,2.941c-0.283-0.24-0.594-0.448-0.92-0.639  c0.754-0.805,1.227-1.879,1.227-3.066c0-2.481-2.018-4.5-4.499-4.5c-2.481,0-4.5,2.019-4.5,4.5c0,1.188,0.472,2.262,1.227,3.066  c-0.326,0.19-0.638,0.399-0.922,0.641c-0.325-1.22-1.087-2.271-2.162-2.943c0.525-0.612,0.854-1.396,0.854-2.265  c0-1.93-1.57-3.5-3.5-3.5s-3.5,1.57-3.5,3.5c0,0.867,0.329,1.651,0.853,2.265c-1.448,0.904-2.353,2.5-2.353,4.237L2,21.547  c0,0.607,0.336,1.161,0.875,1.441c1.289,0.672,2.676,1.013,4.124,1.013c0.879,0,1.75-0.136,2.6-0.399  c-0.059,0.35-0.096,0.703-0.096,1.065L9.5,25.393c0,0.75,0.412,1.431,1.076,1.774c1.696,0.885,3.521,1.333,5.426,1.333  c1.902,0,3.727-0.448,5.419-1.331c0.664-0.345,1.077-1.024,1.077-1.772l0.002-0.729c0-0.361-0.037-0.717-0.096-1.066  c0.85,0.265,1.72,0.399,2.598,0.399c1.448,0,2.835-0.341,4.123-1.013c0.54-0.28,0.875-0.834,0.875-1.44l0.001-0.546  C30.001,19.266,29.098,17.67,27.648,16.766z M25.001,12.001c1.378,0,2.5,1.121,2.5,2.5c0,1.378-1.122,2.499-2.5,2.499  s-2.5-1.121-2.5-2.499C22.501,13.122,23.623,12.001,25.001,12.001z M12.501,16.002c0-1.93,1.57-3.5,3.5-3.5  c1.929,0,3.499,1.57,3.499,3.5c0,1.93-1.57,3.498-3.499,3.498C14.072,19.5,12.501,17.932,12.501,16.002z M6.999,12.001  c1.378,0,2.5,1.121,2.5,2.5c0,1.378-1.122,2.499-2.5,2.499s-2.5-1.121-2.5-2.499C4.499,13.122,5.62,12.001,6.999,12.001z   M9.923,22.417c-2.18,0.877-4.557,0.742-6.586-0.315C3.129,21.993,3,21.781,3,21.546l-0.001-0.544c0-1.495,0.844-2.85,2.161-3.536  C5.696,17.799,6.322,18,6.999,18c0.677,0,1.303-0.201,1.839-0.535c1.19,0.62,1.982,1.784,2.12,3.129  C10.516,21.141,10.168,21.756,9.923,22.417z M21.498,25.395c0,0.375-0.206,0.715-0.538,0.889c-3.103,1.617-6.82,1.615-9.922-0.002  c-0.332-0.174-0.538-0.514-0.538-0.887l0.002-0.727c0-2.086,1.191-3.975,3.045-4.904c0.707,0.463,1.548,0.736,2.454,0.736  c0.906,0,1.748-0.273,2.455-0.736c1.854,0.93,3.044,2.818,3.044,4.903L21.498,25.395z M29,21.547c0,0.234-0.129,0.446-0.337,0.555  c-2.024,1.058-4.401,1.192-6.583,0.316c-0.246-0.663-0.594-1.279-1.037-1.827c0.139-1.343,0.93-2.507,2.119-3.126  C23.698,17.799,24.325,18,25.001,18s1.302-0.201,1.838-0.534C28.156,18.152,29,19.506,29,21.001V21.547z"/><path d="M20.5,11c1.93,0,3.5-1.569,3.5-3.499s-1.57-3.5-3.5-3.5s-3.5,1.57-3.5,3.5S18.57,11,20.5,11z M20.5,5.001  c1.378,0,2.5,1.121,2.5,2.5C23,8.879,21.878,10,20.5,10S18,8.879,18,7.501C18,6.122,19.122,5.001,20.5,5.001z"/><path d="M11.5,11c1.93,0,3.5-1.569,3.5-3.499s-1.57-3.5-3.5-3.5S8,5.571,8,7.501S9.57,11,11.5,11z M11.5,5.001  c1.378,0,2.5,1.121,2.5,2.5C14,8.879,12.878,10,11.5,10S9,8.879,9,7.501C9,6.122,10.122,5.001,11.5,5.001z"/><text x="0" y="47" fill="#000000" font-size="5px" font-weight="bold" font-family="'Helvetica Neue', Helvetica, Arial-Unicode, Arial, Sans-serif">Created by David Khai</text><text x="0" y="52" fill="#000000" font-size="5px" font-weight="bold" font-family="'Helvetica Neue', Helvetica, Arial-Unicode, Arial, Sans-serif">from the Noun Project</text></svg>