<svg xmlns="http://www.w3.org/2000/svg" width="24" height="24"><path fill="none" d="M0 0h24v24H0Z" data-name="Path 3632"/><path fill="#525863" d="M5.4 21.6a3 3 0 0 1-3-3V5.4a3 3 0 0 1 3-3h4.127a1 1 0 0 1 1 1 1.116 1.116 0 0 1-1 1.123h-4a1 1 0 0 0-1 1v12.954a1 1 0 0 0 1 1H18.4a1 1 0 0 0 1-1v-4a1.173 1.173 0 0 1 1.186-1 1 1 0 0 1 1 1v4.127a3 3 0 0 1-3 3Zm10.175-7.521a.709.709 0 0 1-.422-.652v-2.345a10.44 10.44 0 0 0-.565-.014c-1.915 0-5.318.351-6.641 2.707a.682.682 0 0 1-.6.355.662.662 0 0 1-.179-.024.7.7 0 0 1-.51-.677 8.483 8.483 0 0 1 2.281-5.518 8.925 8.925 0 0 1 6.211-2.48V3.11a.7.7 0 0 1 .422-.647.685.685 0 0 1 .753.15l5.055 5.16a.711.711 0 0 1 0 1l-5.055 5.159a.688.688 0 0 1-.753.151Zm.151-4.519a.621.621 0 0 1 .545.625v1.162l3.018-3.077-3.013-3.077V6.36a.625.625 0 0 1-.618.624 7.051 7.051 0 0 0-5.263 1.852 5.821 5.821 0 0 0-1.273 2.042 9.982 9.982 0 0 1 5.422-1.369c.699.001 1.156.053 1.18.053Z" data-name="Path 2655"/></svg>